<svg width="1680" height="620" viewBox="0 0 1680 620" fill="none" xmlns="http://www.w3.org/2000/svg">
<g clip-path="url(#clip0_3_2)">
<g opacity="0.24">
<path d="M1956.38 452.619C1878.54 452.619 1797.09 431.525 1714.11 389.857C1673.49 369.457 1635.76 346.081 1599.26 323.473C1571.02 305.978 1541.82 287.887 1511.49 271.31C1426.91 225.079 1348.06 200.381 1270.44 195.802C1166.01 189.632 1067.81 220.129 972.879 249.613C891.676 274.835 807.706 300.915 718.386 305.13C582.035 311.591 454.998 267.112 348.704 222.777C331.44 215.576 313.935 208.089 297.004 200.849C204.589 161.324 109.03 120.455 0.843201 103.402C-122.654 83.9318 -281.09 104.216 -344.966 180.631L-348.805 179.297C-283.873 101.625 -123.258 80.9502 1.88193 100.672C110.806 117.842 206.689 158.85 299.413 198.506C316.336 205.742 333.833 213.225 351.071 220.416C456.756 264.499 582.955 308.695 718.072 302.328C806.562 298.151 890.149 272.188 970.986 247.081C1066.45 217.428 1165.15 186.779 1270.84 193.003C1349.38 197.636 1429.02 222.548 1514.31 269.167C1544.74 285.8 1573.99 303.922 1602.28 321.447C1638.69 344.004 1676.35 367.329 1716.79 387.639C1802.2 430.53 1885.9 451.4 1965.4 449.712C2048.5 447.933 2146.62 413.037 2164.79 351.867L2169.07 352.397C2150.47 414.998 2050.33 450.706 1965.54 452.52C1962.5 452.586 1959.44 452.619 1956.38 452.619Z" fill="#05BAFF"/>
<path d="M191.296 343.633C167.449 343.633 143.439 342.488 119.392 339.973C52.5187 332.978 -11.2128 315.757 -72.8458 299.103C-84.0141 296.087 -95.1785 293.071 -106.346 290.115C-178.922 270.919 -256.963 253.449 -336.051 255.594C-423.154 257.962 -499.202 286.769 -529.8 328.984L-533.75 327.793C-502.471 284.641 -424.941 255.197 -336.238 252.786C-256.359 250.62 -177.731 268.195 -104.694 287.516C-93.5089 290.473 -82.3414 293.491 -71.1645 296.512C-9.76079 313.102 53.7281 330.257 120.091 337.198C289.89 354.962 459.026 303.736 571.465 263.66C605.149 251.656 639.045 238.82 671.83 226.407C774.344 187.592 880.348 147.456 996.248 126.36C1179.57 92.992 1386.56 110.769 1549.93 173.911C1591.58 190.01 1631.06 209.099 1669.24 227.56C1696.91 240.936 1725.52 254.768 1754.7 267.344C1839.12 303.709 1914.58 321.869 1985.38 322.864C2074.89 324.137 2158.44 293.467 2188.8 248.324L2192.8 249.441C2161.75 295.606 2076.33 326.89 1985.29 325.675C1913.62 324.667 1837.41 306.352 1752.29 269.68C1723 257.062 1694.34 243.207 1666.63 229.808C1628.53 211.391 1589.14 192.345 1547.69 176.321C1385.32 113.572 1179.62 95.9024 997.43 129.064C882.071 150.063 776.314 190.106 674.034 228.831C641.227 241.252 607.306 254.097 573.576 266.119C476.446 300.739 337.176 343.63 191.296 343.633Z" fill="#B5F6FF"/>
<path d="M579.969 540C535.636 540.001 493.395 534.72 454.829 523.939C351.064 494.931 283.523 430.656 231.146 371.605C223.204 362.654 215.368 353.612 207.521 344.552C162.031 292.049 114.992 237.758 43.7565 198.641C-74.4718 133.718 -253.124 120.813 -390.705 167.258L-392.727 164.769C-253.609 117.804 -72.9603 130.858 46.5822 196.501C118.413 235.947 165.648 290.461 211.326 343.182C219.166 352.233 226.997 361.266 234.925 370.211C286.953 428.858 353.966 492.68 456.565 521.362C577.083 555.051 734.463 534.267 877.53 465.75C941.015 435.345 998.332 398.803 1053.76 363.463C1103.99 331.445 1155.92 298.337 1212.4 269.799C1280.18 235.544 1457.01 160.12 1634.44 199.499C1696.19 213.203 1749.32 239.411 1800.7 264.755L1807.31 268.012C1863.07 295.479 1918.39 321.046 1982.02 332.056C2054.08 344.52 2127.02 333.643 2167.82 304.335L2171.06 306.212C2129.18 336.298 2054.54 347.513 1980.89 334.77C1916.49 323.627 1860.78 297.89 1804.67 270.246L1798.06 266.988C1746.95 241.779 1694.1 215.711 1633.02 202.156C1457.64 163.23 1282.32 238.04 1215.09 272.011C1158.8 300.451 1106.96 333.501 1056.83 365.462C1001.29 400.87 943.861 437.483 880.126 468.006C781.427 515.274 675.852 539.996 579.969 540Z" fill="#0096F9"/>
<path d="M895.723 491.999C698.199 492.005 528.352 398.715 416.496 327.46C396.841 314.94 376.939 301.943 357.693 289.373C242.337 214.036 123.055 136.135 -31.3547 101.28C-209.582 61.0488 -416.359 87.0271 -558.123 167.475L-561 165.365C-491.361 125.846 -404.275 98.6375 -309.155 86.6859C-214.046 74.7329 -117.478 78.8626 -29.916 98.6284C125.447 133.699 245.092 211.835 360.796 287.4C380.033 299.963 399.923 312.954 419.561 325.463C534.494 398.676 710.912 495.281 915 488.89C1019.28 485.63 1125.74 456.328 1250.05 396.678C1283.64 380.565 1316.8 363.267 1348.88 346.539C1411.57 313.85 1476.39 280.05 1547.27 253.52C1619.64 226.432 1762.23 185.098 1904.09 212.696C1988.69 229.15 2059.65 267.897 2122.26 302.083L2242 367.473L2239.18 369.616L2119.44 304.226C2057.15 270.218 1986.56 231.67 1902.83 215.384C1762.55 188.095 1621.22 229.088 1549.45 255.95C1478.86 282.37 1414.18 316.103 1351.62 348.723C1319.51 365.469 1286.31 382.785 1252.66 398.93C1127.62 458.93 1020.39 488.407 915.213 491.696C908.692 491.899 902.188 491.999 895.723 491.999Z" fill="#75E2FF"/>
</g>
</g>
<defs>
<clipPath id="clip0_3_2">
<rect width="1680" height="620" fill="white"/>
</clipPath>
</defs>
</svg>
