<svg width="16" height="16" viewBox="0 0 16 16" fill="none" xmlns="http://www.w3.org/2000/svg">
<path d="M4.0026 13.332L3.33594 13.9987M12.0026 13.332L12.6693 13.9987" stroke="#E9BD5F" stroke-linecap="round"/>
<path d="M2 8V8.66667C2 10.8665 2 11.9665 2.68342 12.6499C3.36683 13.3333 4.46678 13.3333 6.66667 13.3333H9.33333C11.5332 13.3333 12.6331 13.3333 13.3166 12.6499C14 11.9665 14 10.8665 14 8.66667V8" stroke="#E9BD5F" stroke-linecap="round" stroke-linejoin="round"/>
<path d="M1.33594 8H14.6693" stroke="#E9BD5F" stroke-linecap="round"/>
<path d="M2.66406 8V3.68227C2.66406 2.75318 3.41724 2 4.34633 2C5.09184 2 5.74842 2.49065 5.95966 3.20561L5.9974 3.33333" stroke="#E9BD5F" stroke-linecap="round"/>
<path d="M5.33594 4.0013L7.0026 2.66797" stroke="#E9BD5F" stroke-linecap="round"/>
</svg>
