<svg width="16" height="16" viewBox="0 0 16 16" fill="none" xmlns="http://www.w3.org/2000/svg">
<path d="M14.6693 11.668H1.33594" stroke="#E9BD5F" stroke-linecap="round" stroke-linejoin="round"/>
<path d="M14.6693 14V10.6667C14.6693 9.4096 14.6693 8.78107 14.2787 8.39053C13.8882 8 13.2597 8 12.0026 8H4.0026C2.74552 8 2.11698 8 1.72646 8.39053C1.33594 8.78107 1.33594 9.4096 1.33594 10.6667V14" stroke="#E9BD5F" stroke-linecap="round" stroke-linejoin="round"/>
<path d="M10.6693 8V7.07853C10.6693 6.7402 10.6083 6.62703 10.2957 6.49367C9.64467 6.21593 8.85447 6 8.0026 6C7.15074 6 6.36052 6.21593 5.70954 6.49367C5.39696 6.62703 5.33594 6.7402 5.33594 7.07853V8" stroke="#E9BD5F" stroke-linecap="round"/>
<path d="M13.3307 8V4.90705C13.3307 4.44595 13.3307 4.21541 13.2169 3.99769C13.103 3.77997 12.9408 3.66727 12.6163 3.44189C11.3081 2.53319 9.71553 2 7.9974 2C6.27928 2 4.68667 2.53319 3.37848 3.44189C3.05401 3.66727 2.89178 3.77997 2.77792 3.99769C2.66406 4.21541 2.66406 4.44595 2.66406 4.90705V8" stroke="#E9BD5F" stroke-linecap="round"/>
</svg>
