<svg width="34" height="34" viewBox="0 0 34 34" fill="none" xmlns="http://www.w3.org/2000/svg">
<path d="M4.25 14.9667C4.25 14.1531 4.25 13.7462 4.35487 13.3716C4.44777 13.0397 4.60043 12.7275 4.80537 12.4505C5.03673 12.1377 5.35786 11.8879 6.00014 11.3883L15.6084 3.91524C16.1061 3.52813 16.355 3.33458 16.6298 3.26017C16.8722 3.19453 17.1278 3.19453 17.3702 3.26017C17.645 3.33458 17.8939 3.52813 18.3916 3.91524L27.9999 11.3883C28.6421 11.8879 28.9633 12.1377 29.1946 12.4505C29.3996 12.7275 29.5522 13.0397 29.6451 13.3716C29.75 13.7462 29.75 14.1531 29.75 14.9667V25.2162C29.75 26.803 29.75 27.5964 29.4412 28.2025C29.1695 28.7356 28.7361 29.1691 28.203 29.4407C27.5969 29.7496 26.8035 29.7496 25.2167 29.7496H8.78333C7.19652 29.7496 6.40311 29.7496 5.79703 29.4407C5.2639 29.1691 4.83046 28.7356 4.55881 28.2025C4.25 27.5964 4.25 26.803 4.25 25.2162V14.9667Z" stroke="#2E7CF6" stroke-width="1.5" stroke-linecap="round" stroke-linejoin="round"/>
</svg>
