<svg width="24" height="24" viewBox="0 0 24 24" fill="none" xmlns="http://www.w3.org/2000/svg">
<path d="M10 13C10.4295 13.5741 10.9774 14.0492 11.6066 14.3929C12.2357 14.7367 12.9315 14.9411 13.6467 14.9923C14.3618 15.0435 15.0796 14.9403 15.7513 14.6897C16.4231 14.4392 17.0331 14.0471 17.54 13.54L20.54 10.54C21.4508 9.59702 21.9548 8.33398 21.9434 7.02298C21.932 5.71198 21.4061 4.45791 20.4791 3.53087C19.5521 2.60383 18.298 2.07799 16.987 2.0666C15.676 2.0552 14.413 2.55918 13.47 3.47002L11.75 5.18002" stroke="#E9BD5F" stroke-width="2" stroke-linecap="round" stroke-linejoin="round"/>
<path d="M14 11C13.5705 10.4259 13.0226 9.95082 12.3934 9.60706C11.7642 9.2633 11.0684 9.05888 10.3533 9.00766C9.63816 8.95644 8.9204 9.05966 8.24864 9.31025C7.57688 9.56083 6.96687 9.95293 6.45996 10.46L3.45996 13.46C2.54917 14.403 2.04519 15.666 2.05659 16.977C2.06798 18.288 2.59382 19.5421 3.52086 20.4691C4.4479 21.3962 5.70197 21.922 7.01297 21.9334C8.32397 21.9448 9.58701 21.4408 10.53 20.53L12.24 18.82" stroke="#E9BD5F" stroke-width="2" stroke-linecap="round" stroke-linejoin="round"/>
</svg>
