<svg width="16" height="16" viewBox="0 0 16 16" fill="none" xmlns="http://www.w3.org/2000/svg">
<path d="M4.1974 1.83559C3.50457 1.96444 2.99467 2.19235 2.59156 2.59546C2.18844 2.99858 1.96054 3.50848 1.83168 4.2013M11.7974 1.83559C12.4902 1.96444 13.0001 2.19235 13.4033 2.59546C13.8063 2.99858 14.0343 3.50848 14.1631 4.2013M9.26406 1.67127C8.87446 1.66797 8.45333 1.66797 7.9974 1.66797C7.54146 1.66797 7.12033 1.66797 6.73073 1.67127M14.3274 6.73464C14.3307 7.12424 14.3307 7.54537 14.3307 8.0013C14.3307 8.45724 14.3307 8.87837 14.3274 9.26804M1.66736 6.73464C1.66406 7.12424 1.66406 7.54537 1.66406 8.0013C1.66406 8.45724 1.66406 8.87837 1.66737 9.26804M1.83168 11.8013C1.96054 12.4941 2.18844 13.004 2.59156 13.4072C2.99467 13.8102 3.50457 14.0382 4.1974 14.167M14.1631 11.8013C14.0343 12.4941 13.8063 13.004 13.4033 13.4072C13.0001 13.8102 12.4902 14.0382 11.7974 14.167M9.26406 14.3313C8.87446 14.3346 8.45333 14.3346 7.9974 14.3346C7.54153 14.3346 7.1204 14.3346 6.73086 14.3313" stroke="#E9BD5F" stroke-linecap="round" stroke-linejoin="round"/>
</svg>
