<svg width="34" height="34" viewBox="0 0 34 34" fill="none" xmlns="http://www.w3.org/2000/svg">
<path d="M19.8333 28.333C19.8333 29.8978 18.5648 31.1663 17 31.1663C15.4352 31.1663 14.1667 29.8978 14.1667 28.333M19.8333 28.333C19.8333 26.7682 18.5648 25.4997 17 25.4997M19.8333 28.333H29.75M14.1667 28.333C14.1667 26.7682 15.4352 25.4997 17 25.4997M14.1667 28.333H4.25M17 25.4997V19.833M29.75 7.08301C29.75 9.43022 24.0416 11.333 17 11.333C9.95837 11.333 4.25 9.43022 4.25 7.08301M29.75 7.08301C29.75 4.7358 24.0416 2.83301 17 2.83301C9.95837 2.83301 4.25 4.7358 4.25 7.08301M29.75 7.08301V15.583C29.75 17.9347 24.0833 19.833 17 19.833M4.25 7.08301V15.583C4.25 17.9347 9.91667 19.833 17 19.833" stroke="#2E7CF6" stroke-width="1.5" stroke-linecap="round" stroke-linejoin="round"/>
</svg>
