<svg width="34" height="34" viewBox="0 0 34 34" fill="none" xmlns="http://www.w3.org/2000/svg">
<path d="M16.9974 21.249L12.7474 16.999M16.9974 21.249C18.9763 20.4964 20.8747 19.5472 22.6641 18.4157M16.9974 21.249V28.3324C16.9974 28.3324 21.2899 27.5532 22.6641 25.499C24.1941 23.204 22.6641 18.4157 22.6641 18.4157M12.7474 16.999C13.5013 15.0432 14.4505 13.1685 15.5807 11.4032C17.2314 8.76395 19.5299 6.59087 22.2575 5.09068C24.9851 3.59049 28.0512 2.81307 31.1641 2.83238C31.1641 6.68572 30.0591 13.4574 22.6641 18.4157M12.7474 16.999H5.66406C5.66406 16.999 6.44323 12.7065 8.4974 11.3324C10.7924 9.80238 15.5807 11.3324 15.5807 11.3324M6.3724 23.374C4.2474 25.159 3.53906 30.4574 3.53906 30.4574C3.53906 30.4574 8.8374 29.749 10.6224 27.624C11.6282 26.434 11.6141 24.6065 10.4949 23.5015C9.94425 22.976 9.21889 22.6723 8.45805 22.6488C7.6972 22.6252 6.95447 22.8835 6.3724 23.374Z" stroke="#E9BD5F" stroke-width="1.5" stroke-linecap="round" stroke-linejoin="round"/>
</svg>
