<svg preserveAspectRatio="none" width="100%" height="100%" overflow="visible" style="display: block;" viewBox="0 0 16 16" fill="none" xmlns="http://www.w3.org/2000/svg">
<g id="notification-circle">
<path id="Vector" d="M14.6667 3.66667C14.6667 4.95533 13.622 6 12.3333 6C11.0447 6 10 4.95533 10 3.66667C10 2.378 11.0447 1.33333 12.3333 1.33333C13.622 1.33333 14.6667 2.378 14.6667 3.66667Z" stroke="var(--stroke-0, white)"/>
<path id="Vector_2" d="M14.6337 7.33333C14.6555 7.5526 14.6667 7.775 14.6667 8C14.6667 11.6819 11.6819 14.6667 8 14.6667C4.3181 14.6667 1.33333 11.6819 1.33333 8C1.33333 4.3181 4.3181 1.33333 8 1.33333C8.225 1.33333 8.4474 1.34448 8.66667 1.36625" stroke="var(--stroke-0, white)" stroke-linecap="round"/>
<path id="Vector_3" d="M5.33333 6.66667H8" stroke="var(--stroke-0, white)" stroke-linecap="round" stroke-linejoin="round"/>
<path id="Vector_4" d="M5.33333 10H10.6667" stroke="var(--stroke-0, white)" stroke-linecap="round" stroke-linejoin="round"/>
</g>
</svg>
