<svg preserveAspectRatio="none" width="100%" height="100%" overflow="visible" style="display: block;" viewBox="0 0 19.1804 18.3337" fill="none" xmlns="http://www.w3.org/2000/svg">
<path id="Icon" d="M8.89913 1.30348C9.12116 0.853658 9.23218 0.628749 9.38289 0.55689C9.51402 0.49437 9.66636 0.49437 9.79749 0.55689C9.9482 0.628749 10.0592 0.853658 10.2813 1.30348L12.3878 5.57101C12.4533 5.70381 12.4861 5.77021 12.534 5.82176C12.5764 5.8674 12.6272 5.90439 12.6837 5.93066C12.7475 5.96033 12.8208 5.97104 12.9674 5.99246L17.6793 6.68118C18.1755 6.7537 18.4236 6.78997 18.5384 6.91116C18.6383 7.0166 18.6852 7.16149 18.6662 7.30548C18.6444 7.47099 18.4648 7.64593 18.1055 7.99581L14.6972 11.3155C14.591 11.419 14.5379 11.4707 14.5036 11.5323C14.4732 11.5868 14.4538 11.6467 14.4463 11.7086C14.4378 11.7786 14.4503 11.8517 14.4754 11.9978L15.2796 16.6868C15.3644 17.1813 15.4068 17.4286 15.3271 17.5753C15.2578 17.703 15.1345 17.7925 14.9916 17.819C14.8275 17.8495 14.6054 17.7327 14.1613 17.4991L9.9489 15.2839C9.81765 15.2148 9.75202 15.1803 9.68289 15.1668C9.62167 15.1548 9.55871 15.1548 9.49749 15.1668C9.42835 15.1803 9.36273 15.2148 9.23148 15.2839L5.01908 17.4991C4.57498 17.7327 4.35293 17.8495 4.18874 17.819C4.04588 17.7925 3.92262 17.703 3.85327 17.5753C3.77357 17.4286 3.81598 17.1813 3.9008 16.6868L4.705 11.9978C4.73007 11.8517 4.74261 11.7786 4.73413 11.7086C4.72661 11.6467 4.70714 11.5868 4.67679 11.5323C4.64251 11.4707 4.58939 11.419 4.48314 11.3155L1.07485 7.99581C0.715622 7.64593 0.53601 7.47099 0.514153 7.30548C0.495137 7.16149 0.542116 7.0166 0.642011 6.91116C0.756826 6.78997 1.00492 6.7537 1.50111 6.68118L6.21303 5.99246C6.35956 5.97104 6.43283 5.96033 6.49664 5.93066C6.55313 5.90439 6.604 5.8674 6.6464 5.82176C6.6943 5.77021 6.72708 5.70381 6.79263 5.57101L8.89913 1.30348Z" stroke="var(--stroke-0, #16A34A)" stroke-width="1.02" stroke-linecap="round" stroke-linejoin="round"/>
</svg>
