<svg preserveAspectRatio="none" width="100%" height="100%" overflow="visible" style="display: block;" viewBox="0 0 18.3601 19.0663" fill="none" xmlns="http://www.w3.org/2000/svg">
<path id="Icon" d="M0.510032 8.50394C0.510032 7.95064 0.510032 7.67399 0.581345 7.41922C0.644515 7.19355 0.748328 6.98129 0.887685 6.79287C1.04501 6.58017 1.26338 6.41032 1.70012 6.07063L8.23375 0.988924C8.57219 0.72569 8.74141 0.594074 8.92827 0.543481C9.09314 0.49884 9.26692 0.49884 9.4318 0.543481C9.61865 0.594074 9.78788 0.725691 10.1263 0.988924L16.6599 6.07063C17.0967 6.41032 17.3151 6.58017 17.4724 6.79287C17.6117 6.98129 17.7155 7.19355 17.7787 7.41922C17.85 7.67399 17.85 7.95064 17.85 8.50394V15.4736C17.85 16.5526 17.85 17.0921 17.64 17.5043C17.4553 17.8668 17.1606 18.1615 16.7981 18.3463C16.3859 18.5563 15.8464 18.5563 14.7674 18.5563H3.5927C2.51366 18.5563 1.97415 18.5563 1.56201 18.3463C1.19949 18.1615 0.904743 17.8668 0.720027 17.5043C0.510032 17.0921 0.510032 16.5526 0.510032 15.4736V8.50394Z" stroke="var(--stroke-0, #0A5BD8)" stroke-width="1.02" stroke-linecap="round" stroke-linejoin="round"/>
</svg>
