<svg preserveAspectRatio="none" width="100%" height="100%" overflow="visible" style="display: block;" viewBox="0 0 20.2867 14.5067" fill="none" xmlns="http://www.w3.org/2000/svg">
<path id="Icon" d="M19.7767 5.32667H0.51M0.51 3.59267L0.51 10.914C0.51 11.993 0.51 12.5325 0.719994 12.9447C0.90471 13.3072 1.19945 13.602 1.56198 13.7867C1.97411 13.9967 2.51363 13.9967 3.59267 13.9967L16.694 13.9967C17.773 13.9967 18.3126 13.9967 18.7247 13.7867C19.0872 13.602 19.382 13.3072 19.5667 12.9447C19.7767 12.5326 19.7767 11.993 19.7767 10.914V3.59267C19.7767 2.51363 19.7767 1.97412 19.5667 1.56198C19.382 1.19945 19.0872 0.904712 18.7247 0.719996C18.3126 0.510002 17.773 0.510002 16.694 0.510001L3.59267 0.51C2.51363 0.51 1.97412 0.51 1.56198 0.719994C1.19945 0.90471 0.904711 1.19945 0.719995 1.56198C0.51 1.97411 0.51 2.51363 0.51 3.59267Z" stroke="var(--stroke-0, white)" stroke-width="1.02" stroke-linecap="round" stroke-linejoin="round"/>
</svg>
