<svg preserveAspectRatio="none" width="100%" height="100%" overflow="visible" style="display: block;" viewBox="0 0 18.36 20.2867" fill="none" xmlns="http://www.w3.org/2000/svg">
<path id="Icon" d="M15.9233 8.69833V5.134C15.9233 3.51545 15.9233 2.70617 15.6083 2.08797C15.3313 1.54418 14.8892 1.10207 14.3454 0.824991C13.7272 0.51 12.9179 0.51 11.2993 0.51H5.134C3.51545 0.51 2.70617 0.51 2.08797 0.824991C1.54418 1.10207 1.10207 1.54418 0.824991 2.08797C0.51 2.70617 0.51 3.51545 0.51 5.134V15.1527C0.51 16.7712 0.51 17.5805 0.824991 18.1987C1.10207 18.7425 1.54418 19.1846 2.08797 19.4617C2.70617 19.7767 3.51545 19.7767 5.134 19.7767H7.735M17.85 19.7767L16.405 18.3317M17.3683 15.9233C17.3683 17.7855 15.8588 19.295 13.9967 19.295C12.1345 19.295 10.625 17.7855 10.625 15.9233C10.625 14.0612 12.1345 12.5517 13.9967 12.5517C15.8588 12.5517 17.3683 14.0612 17.3683 15.9233Z" stroke="var(--stroke-0, white)" stroke-width="1.02" stroke-linecap="round" stroke-linejoin="round"/>
</svg>
