<svg preserveAspectRatio="none" width="100%" height="100%" overflow="visible" style="display: block;" viewBox="0 0 19.7385 19.4818" fill="none" xmlns="http://www.w3.org/2000/svg">
<path id="Icon" d="M11.1068 16.0818H15.2436C17.0404 16.0818 17.9388 16.0818 18.4489 15.7054C18.8936 15.3771 19.1759 14.8737 19.2241 14.3231C19.2794 13.6915 18.8109 12.9249 17.8739 11.3917L16.9136 9.82018M4.48883 7.99487L2.41298 11.3917C1.47604 12.9249 1.00756 13.6915 1.06281 14.3231C1.11098 14.8737 1.39332 15.3771 1.83805 15.7054C2.34816 16.0818 3.24656 16.0818 5.04336 16.0818H6.77179M14.8531 6.44851L12.7738 3.04611C11.9042 1.62298 11.4693 0.911414 10.9095 0.668836C10.4208 0.457055 9.86616 0.457055 9.37742 0.668836C8.81761 0.911414 8.38277 1.62298 7.51308 3.04611L6.53065 4.65372M15.9235 2.59524L14.8656 6.54305L10.9178 5.48524M0.510127 8.95132L4.45794 7.89351L5.51575 11.8413M13.5151 18.9718L10.6251 16.0818L13.5151 13.1918" stroke="var(--stroke-0, white)" stroke-width="1.02" stroke-linecap="round" stroke-linejoin="round"/>
</svg>
