<svg preserveAspectRatio="none" width="100%" height="100%" overflow="visible" style="display: block;" viewBox="0 0 20.2869 15.3563" fill="none" xmlns="http://www.w3.org/2000/svg">
<path id="Icon" d="M0.510112 10.0865L9.79879 14.7308C9.92516 14.794 9.98835 14.8256 10.0546 14.838C10.1133 14.849 10.1736 14.849 10.2323 14.838C10.2985 14.8256 10.3617 14.794 10.4881 14.7308L19.7768 10.0865M0.510112 5.26981L9.79879 0.625473C9.92516 0.562287 9.98835 0.530694 10.0546 0.51826C10.1133 0.507247 10.1736 0.507247 10.2323 0.51826C10.2985 0.530694 10.3617 0.562287 10.4881 0.625473L19.7768 5.26981L10.4881 9.91415C10.3617 9.97734 10.2985 10.0089 10.2323 10.0214C10.1736 10.0324 10.1133 10.0324 10.0546 10.0214C9.98835 10.0089 9.92516 9.97734 9.79879 9.91415L0.510112 5.26981Z" stroke="var(--stroke-0, #0A5BD8)" stroke-width="1.02" stroke-linecap="round" stroke-linejoin="round"/>
</svg>
