<svg preserveAspectRatio="none" width="100%" height="100%" overflow="visible" style="display: block;" viewBox="0 0 20.2867 16.4333" fill="none" xmlns="http://www.w3.org/2000/svg">
<path id="Icon" d="M15.9233 8.21667C15.9233 11.4089 13.3355 13.9967 10.1433 13.9967C6.95113 13.9967 4.36333 11.4089 4.36333 8.21667M15.9233 8.21667C15.9233 5.02446 13.3355 2.43667 10.1433 2.43667C6.95113 2.43667 4.36333 5.02446 4.36333 8.21667M15.9233 8.21667C15.9233 12.4729 12.4729 15.9233 8.21667 15.9233C3.96039 15.9233 0.51 12.4729 0.51 8.21667M4.36333 8.21667C4.36333 3.96039 7.81373 0.51 12.07 0.51C16.3263 0.51 19.7767 3.96039 19.7767 8.21667M11.1067 8.21667C11.1067 8.7487 10.6754 9.18 10.1433 9.18C9.6113 9.18 9.18 8.7487 9.18 8.21667C9.18 7.68463 9.6113 7.25333 10.1433 7.25333C10.6754 7.25333 11.1067 7.68463 11.1067 8.21667Z" stroke="var(--stroke-0, white)" stroke-width="1.02" stroke-linecap="round" stroke-linejoin="round"/>
</svg>
