<svg width="16" height="16" viewBox="0 0 16 16" fill="none" xmlns="http://www.w3.org/2000/svg">
<path d="M9.07847 14.2434C8.7894 14.514 8.40293 14.6654 8.00073 14.6654C7.59853 14.6654 7.21213 14.514 6.923 14.2434C4.27535 11.7494 0.727174 8.9633 2.45751 4.91847C3.39309 2.73147 5.63889 1.33203 8.00073 1.33203C10.3626 1.33203 12.6084 2.73147 13.544 4.91847C15.2721 8.95823 11.7327 11.758 9.07847 14.2434Z" stroke="#E9BD5F"/>
<path d="M10.3307 7.33333C10.3307 8.622 9.28606 9.66667 7.9974 9.66667C6.70873 9.66667 5.66406 8.622 5.66406 7.33333C5.66406 6.04467 6.70873 5 7.9974 5C9.28606 5 10.3307 6.04467 10.3307 7.33333Z" stroke="#E9BD5F"/>
</svg>
