<svg width="34" height="34" viewBox="0 0 34 34" fill="none" xmlns="http://www.w3.org/2000/svg">
<path d="M31.1693 29.75V26.9167C31.1693 24.2762 29.3633 22.0576 26.9193 21.4285M21.9609 4.66191C24.0377 5.50254 25.5026 7.53852 25.5026 9.91667C25.5026 12.2948 24.0377 14.3308 21.9609 15.1714M24.0859 29.75C24.0859 27.1097 24.0859 25.7895 23.6546 24.7481C23.0795 23.3596 21.9763 22.2565 20.5878 21.6813C19.5464 21.25 18.2263 21.25 15.5859 21.25H11.3359C8.6956 21.25 7.37543 21.25 6.33406 21.6813C4.94557 22.2565 3.84242 23.3596 3.26729 24.7481C2.83594 25.7895 2.83594 27.1097 2.83594 29.75M19.1276 9.91667C19.1276 13.0463 16.5906 15.5833 13.4609 15.5833C10.3313 15.5833 7.79427 13.0463 7.79427 9.91667C7.79427 6.78705 10.3313 4.25 13.4609 4.25C16.5906 4.25 19.1276 6.78705 19.1276 9.91667Z" stroke="#2E7CF6" stroke-width="1.5" stroke-linecap="round" stroke-linejoin="round"/>
</svg>
