<svg width="34" height="34" viewBox="0 0 34 34" fill="none" xmlns="http://www.w3.org/2000/svg">
<path d="M17.0026 31.1654C24.8266 31.1654 31.1693 24.8227 31.1693 16.9987C31.1693 9.17466 24.8266 2.83203 17.0026 2.83203C9.17857 2.83203 2.83594 9.17466 2.83594 16.9987C2.83594 24.8227 9.17857 31.1654 17.0026 31.1654Z" stroke="#FF8276" stroke-width="1.5" stroke-linecap="round" stroke-linejoin="round"/>
<path d="M17.0026 25.4987C21.697 25.4987 25.5026 21.6931 25.5026 16.9987C25.5026 12.3043 21.697 8.4987 17.0026 8.4987C12.3082 8.4987 8.5026 12.3043 8.5026 16.9987C8.5026 21.6931 12.3082 25.4987 17.0026 25.4987Z" stroke="#FF8276" stroke-width="1.5" stroke-linecap="round" stroke-linejoin="round"/>
<path d="M17.0026 19.832C18.5674 19.832 19.8359 18.5635 19.8359 16.9987C19.8359 15.4339 18.5674 14.1654 17.0026 14.1654C15.4378 14.1654 14.1693 15.4339 14.1693 16.9987C14.1693 18.5635 15.4378 19.832 17.0026 19.832Z" stroke="#FF8276" stroke-width="1.5" stroke-linecap="round" stroke-linejoin="round"/>
</svg>
