<svg width="34" height="34" viewBox="0 0 34 34" fill="none" xmlns="http://www.w3.org/2000/svg">
<path d="M17.0026 4.25V8.5M17.0026 14.875V19.125M17.0026 25.5V29.75M4.66028 11.32L10.8765 16.1017C11.2738 16.4074 11.4725 16.5602 11.5439 16.7465C11.6065 16.9097 11.6065 17.0903 11.5439 17.2535C11.4725 17.4398 11.2738 17.5926 10.8765 17.8983L4.66028 22.68C4.07432 23.1307 3.78135 23.3561 3.53559 23.3531C3.32178 23.3505 3.1206 23.2514 2.98816 23.0835C2.83594 22.8906 2.83594 22.5209 2.83594 21.7817V12.2183C2.83594 11.4791 2.83594 11.1094 2.98816 10.9165C3.1206 10.7486 3.32178 10.6495 3.53559 10.6469C3.78135 10.6439 4.07432 10.8693 4.66028 11.32ZM29.3449 11.32L23.1287 16.1017C22.7314 16.4074 22.5327 16.5602 22.4613 16.7465C22.3987 16.9097 22.3987 17.0903 22.4613 17.2535C22.5327 17.4398 22.7314 17.5926 23.1287 17.8983L29.3449 22.68C29.9309 23.1307 30.2239 23.3561 30.4696 23.3531C30.6834 23.3505 30.8846 23.2514 31.017 23.0835C31.1693 22.8906 31.1693 22.5209 31.1693 21.7817V12.2183C31.1693 11.4791 31.1693 11.1094 31.017 10.9165C30.8846 10.7486 30.6834 10.6495 30.4696 10.6469C30.2239 10.6439 29.9309 10.8693 29.3449 11.32Z" stroke="#8DEB92" stroke-width="1.5" stroke-linecap="round" stroke-linejoin="round"/>
</svg>
