<svg preserveAspectRatio="none" width="100%" height="100%" overflow="visible" style="display: block;" viewBox="0 0 29.125 29.1254" fill="none" xmlns="http://www.w3.org/2000/svg">
<path id="Icon" d="M14.2083 19.167L9.95834 14.917M14.2083 19.167C16.1872 18.4144 18.0856 17.4652 19.875 16.3337M14.2083 19.167V26.2504C14.2083 26.2504 18.5008 25.4712 19.875 23.417C21.405 21.122 19.875 16.3337 19.875 16.3337M9.95834 14.917C10.7122 12.9612 11.6615 11.0864 12.7917 9.32118C14.4423 6.68192 16.7408 4.50884 19.4684 3.00865C22.196 1.50846 25.2621 0.731043 28.375 0.750351C28.375 4.60368 27.27 11.3754 19.875 16.3337M9.95834 14.917H2.87501C2.87501 14.917 3.65417 10.6245 5.70834 9.25035C8.00334 7.72035 12.7917 9.25035 12.7917 9.25035M3.58334 21.292C1.45834 23.077 0.750007 28.3754 0.750007 28.3754C0.750007 28.3754 6.04834 27.667 7.83334 25.542C8.83917 24.352 8.82501 22.5245 7.70584 21.4195C7.15519 20.8939 6.42984 20.5903 5.66899 20.5667C4.90815 20.5432 4.16542 20.8015 3.58334 21.292Z" stroke="var(--stroke-0, #E9BD5F)" stroke-width="1.5" stroke-linecap="round" stroke-linejoin="round"/>
</svg>
