<svg width="24" height="24" viewBox="0 0 24 24" fill="none" xmlns="http://www.w3.org/2000/svg">
<path d="M10.4975 11.9988H4.9975M4.91284 12.2903L2.57792 19.265C2.39449 19.813 2.30277 20.0869 2.36859 20.2556C2.42575 20.4022 2.54851 20.5132 2.7 20.5555C2.87443 20.6042 3.1379 20.4856 3.66483 20.2485L20.3763 12.7284C20.8906 12.4969 21.1478 12.3812 21.2273 12.2204C21.2963 12.0808 21.2963 11.9169 21.2273 11.7772C21.1478 11.6164 20.8906 11.5007 20.3763 11.2693L3.659 3.74654C3.13366 3.51013 2.87099 3.39193 2.69673 3.44042C2.54539 3.48253 2.42264 3.59332 2.36528 3.73956C2.29923 3.90795 2.38997 4.18133 2.57144 4.72809L4.91349 11.7843C4.94466 11.8782 4.96024 11.9252 4.9664 11.9732C4.97186 12.0158 4.9718 12.059 4.96623 12.1016C4.95996 12.1496 4.94425 12.1965 4.91284 12.2903Z" stroke="#2E7CF6" stroke-width="1.5" stroke-linecap="round" stroke-linejoin="round"/>
</svg>
