<svg width="21" height="24" viewBox="0 0 21 24" fill="none" xmlns="http://www.w3.org/2000/svg">
<path d="M18.2103 5.13232C18.0483 5.04854 17.8906 4.9567 17.7378 4.85714C17.2938 4.56354 16.8866 4.21763 16.5251 3.82684C15.6196 2.7912 15.2815 1.74064 15.1578 1.00577H15.1621C15.0586 0.39463 15.1013 0 15.1087 0H10.9864V15.9377C10.9864 16.151 10.9864 16.3633 10.9779 16.5723C10.9779 16.5979 10.9747 16.6214 10.9736 16.6502C10.9736 16.6608 10.9736 16.6736 10.9704 16.6854V16.695C10.9272 17.2667 10.744 17.819 10.4371 18.3033C10.1303 18.7876 9.70908 19.189 9.21061 19.4723C8.69058 19.7682 8.1024 19.9233 7.50411 19.9224C5.58429 19.9224 4.0271 18.3567 4.0271 16.423C4.0271 14.4882 5.58429 12.9225 7.50411 12.9225C7.86781 12.9225 8.22937 12.9801 8.57494 13.0932L8.58027 8.89517C7.53078 8.75977 6.46462 8.8434 5.44909 9.14079C4.43355 9.43818 3.49069 9.94287 2.68003 10.623C1.96954 11.2401 1.37219 11.9764 0.914857 12.7988C0.741007 13.0985 0.0840021 14.3048 0.00507615 16.2609C-0.0450525 17.3701 0.288783 18.522 0.447701 18.9966V19.0073C0.546892 19.2867 0.935122 20.2424 1.56653 21.0476C2.0757 21.694 2.6773 22.2618 3.35196 22.7328V22.7221L3.36156 22.7328C5.35604 24.0873 7.56917 23.9988 7.56917 23.9988C7.95206 23.9828 9.23514 23.9988 10.6921 23.3087C12.3079 22.543 13.2273 21.4028 13.2273 21.4028C13.8151 20.7214 14.2825 19.9448 14.6096 19.1065C14.9829 18.1252 15.1066 16.9499 15.1066 16.4806V8.02378C15.1567 8.05365 15.8233 8.49414 15.8233 8.49414C15.8233 8.49414 16.7832 9.10955 18.2796 9.50951C19.3526 9.79428 20.7999 9.85508 20.7999 9.85508V5.76266C20.2933 5.81812 19.2641 5.65814 18.2092 5.13339L18.2103 5.13232Z" fill="#2C6EFE"/>
</svg>
