<svg width="24" height="24" viewBox="0 0 24 24" fill="none" xmlns="http://www.w3.org/2000/svg">
<path d="M22 4.01001C21 4.50001 20.02 4.69901 19 5.00001C17.879 3.73501 16.217 3.66501 14.62 4.26301C13.023 4.86101 11.977 6.32301 12 8.00001V9.00001C8.755 9.08301 5.865 7.60501 4 5.00001C4 5.00001 -0.182 12.433 8 16C6.128 17.247 4.261 18.088 2 18C5.308 19.687 8.913 20.322 12.034 19.513C15.614 18.585 18.546 15.837 19.685 11.985C20.0218 10.8552 20.189 9.67968 20.182 8.49901C20.18 8.23601 21.692 5.25001 22 4.01001Z" fill="#E9BD5F"/>
</svg>
