<svg preserveAspectRatio="none" width="100%" height="100%" overflow="visible" style="display: block;" viewBox="0 0 29.8333 27" fill="none" xmlns="http://www.w3.org/2000/svg">
<path id="Icon" d="M29.0833 26.25V23.4167C29.0833 20.7762 27.2774 18.5576 24.8333 17.9285M19.875 1.16191C21.9517 2.00254 23.4167 4.03852 23.4167 6.41667C23.4167 8.79481 21.9517 10.8308 19.875 11.6714M22 26.25C22 23.6097 22 22.2895 21.5687 21.2481C20.9935 19.8596 19.8904 18.7565 18.5019 18.1813C17.4605 17.75 16.1403 17.75 13.5 17.75H9.25C6.60966 17.75 5.2895 17.75 4.24813 18.1813C2.85963 18.7565 1.75648 19.8596 1.18135 21.2481C0.75 22.2895 0.75 23.6097 0.75 26.25M17.0417 6.41667C17.0417 9.54628 14.5046 12.0833 11.375 12.0833C8.24539 12.0833 5.70833 9.54628 5.70833 6.41667C5.70833 3.28705 8.24539 0.75 11.375 0.75C14.5046 0.75 17.0417 3.28705 17.0417 6.41667Z" stroke="var(--stroke-0, #2E7CF6)" stroke-width="1.5" stroke-linecap="round" stroke-linejoin="round"/>
</svg>
