<svg width="34" height="34" viewBox="0 0 34 34" fill="none" xmlns="http://www.w3.org/2000/svg">
<path d="M30.0507 22.5116C29.1494 24.643 27.7398 26.5211 25.945 27.9818C24.1502 29.4425 22.0249 30.4413 19.755 30.8909C17.485 31.3405 15.1394 31.2272 12.9234 30.5608C10.7073 29.8945 8.68823 28.6955 7.04262 27.0685C5.39701 25.4416 4.175 23.4364 3.48341 21.2281C2.79182 19.0197 2.65172 16.6756 3.07536 14.4007C3.49899 12.1257 4.47346 9.98918 5.91357 8.17783C7.35369 6.36648 9.21559 4.93549 11.3365 4.00996M30.0915 11.5794C30.6586 12.9486 31.0065 14.3961 31.1245 15.8687C31.1537 16.2325 31.1683 16.4143 31.096 16.5782C31.0357 16.7151 30.9161 16.8446 30.7845 16.9157C30.627 17.0008 30.4302 17.0008 30.0365 17.0008H18.1365C17.7398 17.0008 17.5415 17.0008 17.3899 16.9236C17.2567 16.8557 17.1483 16.7473 17.0804 16.614C17.0032 16.4625 17.0032 16.2642 17.0032 15.8675V3.96746C17.0032 3.57381 17.0032 3.37699 17.0883 3.21943C17.1594 3.08782 17.2889 2.96827 17.4258 2.90792C17.5896 2.83568 17.7715 2.85027 18.1353 2.87943C19.6079 2.99749 21.0554 3.34537 22.4245 3.9125C24.1433 4.62444 25.705 5.66795 27.0205 6.98344C28.336 8.29894 29.3795 9.86066 30.0915 11.5794Z" stroke="#8DEB92" stroke-width="1.5" stroke-linecap="round" stroke-linejoin="round"/>
</svg>
