<svg width="1680" height="573" viewBox="0 0 1680 573" fill="none"
    xmlns="http://www.w3.org/2000/svg">
    <g opacity="0.24" filter="url(#filter0_f_1203_254139)">
        <path d="M1956.38 405.619C1878.54 405.619 1797.09 384.525 1714.11 342.857C1673.49 322.457 1635.76 299.081 1599.26 276.473C1571.02 258.978 1541.82 240.887 1511.49 224.31C1426.91 178.079 1348.06 153.381 1270.44 148.802C1166.01 142.632 1067.81 173.129 972.879 202.613C891.676 227.835 807.706 253.915 718.386 258.13C582.035 264.591 454.998 220.112 348.704 175.777C331.44 168.576 313.935 161.089 297.004 153.849C204.589 114.324 109.03 73.4546 0.84314 56.4023C-122.654 36.9317 -281.09 57.2158 -344.966 133.631L-348.805 132.297C-283.873 54.6254 -123.258 33.9501 1.88187 53.6721C110.806 70.8419 206.689 111.85 299.413 151.506C316.336 158.742 333.833 166.225 351.071 173.416C456.756 217.499 582.955 261.695 718.072 255.328C806.562 251.151 890.149 225.188 970.986 200.081C1066.45 170.428 1165.15 139.779 1270.84 146.003C1349.38 150.636 1429.02 175.548 1514.31 222.167C1544.74 238.8 1573.99 256.922 1602.28 274.447C1638.69 297.004 1676.35 320.329 1716.79 340.639C1802.2 383.53 1885.9 404.4 1965.4 402.712C2048.5 400.933 2146.62 366.037 2164.79 304.867L2169.07 305.397C2150.47 367.998 2050.33 403.706 1965.54 405.52C1962.5 405.586 1959.44 405.619 1956.38 405.619Z" fill="#05BAFF"/>
        <path d="M191.296 296.633C167.449 296.633 143.439 295.488 119.392 292.973C52.5187 285.978 -11.2128 268.757 -72.8458 252.103C-84.0141 249.087 -95.1785 246.071 -106.346 243.115C-178.922 223.919 -256.963 206.449 -336.051 208.594C-423.154 210.962 -499.202 239.769 -529.8 281.984L-533.75 280.793C-502.471 237.641 -424.941 208.197 -336.238 205.786C-256.359 203.62 -177.731 221.195 -104.694 240.516C-93.5089 243.473 -82.3414 246.491 -71.1645 249.512C-9.7608 266.102 53.7281 283.257 120.091 290.198C289.89 307.962 459.026 256.736 571.465 216.66C605.149 204.656 639.045 191.82 671.83 179.407C774.344 140.592 880.348 100.456 996.248 79.36C1179.57 45.9919 1386.56 63.7693 1549.93 126.911C1591.58 143.01 1631.06 162.099 1669.24 180.56C1696.91 193.936 1725.52 207.768 1754.7 220.344C1839.12 256.709 1914.58 274.869 1985.38 275.864C2074.89 277.137 2158.44 246.467 2188.8 201.324L2192.8 202.441C2161.75 248.606 2076.33 279.89 1985.29 278.675C1913.62 277.667 1837.41 259.352 1752.29 222.68C1723 210.062 1694.34 196.207 1666.63 182.808C1628.53 164.391 1589.14 145.345 1547.69 129.321C1385.32 66.5717 1179.62 48.9023 997.43 82.0635C882.071 103.063 776.314 143.106 674.034 181.831C641.227 194.252 607.306 207.097 573.576 219.119C476.446 253.739 337.176 296.63 191.296 296.633Z" fill="#B5F6FF"/>
        <path d="M579.969 493C535.636 493.001 493.395 487.72 454.829 476.939C351.064 447.931 283.523 383.656 231.146 324.605C223.204 315.654 215.368 306.612 207.521 297.552C162.031 245.049 114.992 190.758 43.7566 151.641C-74.4717 86.7185 -253.124 73.8131 -390.705 120.258L-392.727 117.769C-253.609 70.8038 -72.9602 83.8575 46.5823 149.501C118.413 188.947 165.648 243.461 211.326 296.182C219.166 305.233 226.997 314.266 234.925 323.211C286.953 381.858 353.966 445.68 456.565 474.362C577.083 508.051 734.463 487.267 877.53 418.75C941.015 388.345 998.332 351.803 1053.76 316.463C1103.99 284.445 1155.92 251.337 1212.4 222.799C1280.18 188.544 1457.01 113.12 1634.44 152.499C1696.19 166.203 1749.32 192.411 1800.7 217.755L1807.31 221.012C1863.07 248.479 1918.39 274.046 1982.02 285.056C2054.08 297.52 2127.02 286.643 2167.82 257.335L2171.06 259.212C2129.18 289.298 2054.54 300.513 1980.89 287.77C1916.49 276.627 1860.78 250.89 1804.67 223.246L1798.06 219.988C1746.95 194.779 1694.1 168.711 1633.02 155.156C1457.64 116.23 1282.32 191.04 1215.09 225.011C1158.8 253.451 1106.96 286.501 1056.83 318.462C1001.29 353.87 943.861 390.483 880.126 421.006C781.427 468.274 675.852 492.996 579.969 493Z" fill="#0096F9"/>
        <path d="M895.723 444.999C698.199 445.005 528.352 351.715 416.496 280.46C396.841 267.94 376.939 254.943 357.693 242.373C242.337 167.036 123.055 89.1353 -31.3547 54.2799C-209.582 14.0488 -416.359 40.0271 -558.123 120.475L-561 118.365C-491.361 78.8457 -404.275 51.6375 -309.155 39.6859C-214.046 27.7329 -117.478 31.8626 -29.916 51.6284C125.447 86.6993 245.092 164.835 360.796 240.4C380.033 252.963 399.923 265.954 419.561 278.463C534.494 351.676 710.912 448.281 915 441.89C1019.28 438.63 1125.74 409.328 1250.05 349.678C1283.64 333.565 1316.8 316.267 1348.88 299.539C1411.57 266.85 1476.39 233.05 1547.27 206.52C1619.64 179.432 1762.23 138.098 1904.09 165.696C1988.69 182.15 2059.65 220.897 2122.26 255.083L2242 320.473L2239.18 322.616L2119.44 257.226C2057.15 223.218 1986.56 184.67 1902.83 168.384C1762.55 141.095 1621.22 182.088 1549.45 208.95C1478.86 235.37 1414.18 269.103 1351.62 301.723C1319.51 318.469 1286.31 335.785 1252.66 351.93C1127.62 411.93 1020.39 441.407 915.213 444.696C908.692 444.899 902.188 444.999 895.723 444.999Z" fill="#75E2FF"/>
    </g>
</svg>
