<svg preserveAspectRatio="none" width="100%" height="100%" overflow="visible" style="display: block;" viewBox="0 0 2803 460" fill="none" xmlns="http://www.w3.org/2000/svg">
<g id="Frame 1000008497" opacity="0.24">
<path id="Vector" d="M2517.38 372.619C2439.54 372.619 2358.09 351.525 2275.11 309.857C2234.49 289.457 2196.76 266.081 2160.26 243.473C2132.02 225.978 2102.82 207.887 2072.49 191.31C1987.91 145.079 1909.06 120.381 1831.44 115.802C1727.01 109.632 1628.81 140.129 1533.88 169.613C1452.68 194.835 1368.71 220.915 1279.39 225.13C1143.04 231.591 1016 187.112 909.704 142.777C892.44 135.576 874.935 128.089 858.004 120.849C765.589 81.3236 670.03 40.4546 561.843 23.4023C438.346 3.93172 279.91 24.2158 216.034 100.631L212.195 99.2973C277.127 21.6254 437.742 0.950143 562.882 20.6721C671.806 37.8419 767.689 78.8497 860.413 118.506C877.336 125.742 894.833 133.225 912.071 140.416C1017.76 184.499 1143.95 228.695 1279.07 222.328C1367.56 218.151 1451.15 192.188 1531.99 167.081C1627.45 137.428 1726.15 106.779 1831.84 113.003C1910.38 117.636 1990.02 142.548 2075.31 189.167C2105.74 205.8 2134.99 223.922 2163.28 241.447C2199.69 264.004 2237.35 287.329 2277.79 307.64C2363.2 350.53 2446.9 371.4 2526.4 369.712C2609.5 367.933 2707.62 333.037 2725.79 271.867L2730.07 272.397C2711.47 334.998 2611.33 370.706 2526.54 372.52C2523.5 372.586 2520.44 372.619 2517.38 372.619Z" fill="var(--fill-0, #05BAFF)"/>
<path id="Vector_2" d="M752.296 263.634C728.449 263.634 704.439 262.488 680.392 259.973C613.519 252.979 549.787 235.758 488.154 219.104C476.986 216.087 465.821 213.071 454.654 210.116C382.078 190.92 304.037 173.449 224.949 175.595C137.846 177.963 61.7975 206.769 31.1998 248.984L27.25 247.793C58.5287 204.641 136.059 175.198 224.762 172.787C304.641 170.62 383.269 188.195 456.306 207.516C467.491 210.473 478.659 213.491 489.836 216.513C551.239 233.102 614.728 250.257 681.091 257.198C850.89 274.962 1020.03 223.737 1132.47 183.661C1166.15 171.657 1200.05 158.821 1232.83 146.408C1335.34 107.593 1441.35 67.4561 1557.25 46.3605C1740.57 12.9924 1947.56 30.7698 2110.93 93.9118C2152.58 110.01 2192.06 129.1 2230.24 147.561C2257.91 160.937 2286.52 174.768 2315.7 187.345C2400.12 223.709 2475.58 241.87 2546.38 242.865C2635.89 244.138 2719.44 213.467 2749.8 168.324L2753.8 169.441C2722.75 215.607 2637.33 246.89 2546.29 245.675C2474.63 244.668 2398.41 226.352 2313.29 189.68C2284 177.062 2255.34 163.208 2227.63 149.808C2189.53 131.392 2150.14 112.346 2108.69 96.3216C1946.32 33.5722 1740.62 15.9028 1558.43 49.064C1443.07 70.0633 1337.31 110.107 1235.03 148.831C1202.23 161.253 1168.31 174.098 1134.58 186.12C1037.45 220.74 898.176 263.631 752.296 263.634Z" fill="var(--fill-0, #B5F6FF)"/>
<path id="Vector_3" d="M1140.97 460C1096.64 460.002 1054.39 454.72 1015.83 443.939C912.064 414.931 844.523 350.656 792.146 291.605C784.204 282.654 776.368 273.612 768.521 264.553C723.031 212.049 675.992 157.759 604.757 118.641C486.528 53.7189 307.876 40.8136 170.295 87.2587L168.273 84.7697C307.391 37.8042 488.04 50.858 607.582 116.501C679.413 155.948 726.648 210.462 772.326 263.182C780.166 272.233 787.997 281.267 795.925 290.211C847.953 348.858 914.966 412.681 1017.57 441.362C1138.08 475.052 1295.46 454.267 1438.53 385.75C1502.01 355.345 1559.33 318.803 1614.76 283.464C1664.99 251.445 1716.92 218.338 1773.4 189.799C1841.18 155.545 2018.01 80.1202 2195.44 119.499C2257.19 133.203 2310.32 159.411 2361.7 184.756L2368.31 188.013C2424.07 215.48 2479.39 241.046 2543.02 252.056C2615.08 264.521 2688.02 253.643 2728.82 224.335L2732.06 226.212C2690.18 256.299 2615.54 267.514 2541.89 254.77C2477.49 243.628 2421.78 217.89 2365.67 190.247L2359.06 186.988C2307.95 161.779 2255.1 135.712 2194.02 122.156C2018.64 83.2304 1843.32 158.04 1776.09 192.011C1719.8 220.451 1667.96 253.501 1617.83 285.462C1562.29 320.871 1504.86 357.484 1441.13 388.006C1342.43 435.275 1236.85 459.996 1140.97 460Z" fill="var(--fill-0, #0096F9)"/>
<path id="Vector_4" d="M1456.72 411.999C1259.2 412.005 1089.35 318.715 977.496 247.46C957.841 234.94 937.939 221.943 918.693 209.373C803.337 134.036 684.055 56.1353 529.645 21.2799C351.418 -18.9512 144.641 7.02711 2.8766 87.4747L0 85.3647C69.639 45.8457 156.725 18.6375 251.845 6.68593C346.954 -5.26713 443.522 -1.13743 531.084 18.6284C686.447 53.6993 806.092 131.835 921.796 207.4C941.033 219.963 960.923 232.954 980.561 245.463C1095.49 318.676 1271.91 415.281 1476 408.89C1580.28 405.63 1686.74 376.328 1811.05 316.678C1844.64 300.565 1877.8 283.267 1909.88 266.539C1972.57 233.85 2037.39 200.05 2108.27 173.52C2180.64 146.432 2323.23 105.098 2465.09 132.696C2549.69 149.15 2620.65 187.897 2683.26 222.083L2803 287.473L2800.18 289.616L2680.44 224.226C2618.15 190.218 2547.56 151.67 2463.83 135.384C2323.55 108.095 2182.22 149.088 2110.45 175.95C2039.86 202.37 1975.18 236.103 1912.62 268.723C1880.51 285.469 1847.31 302.785 1813.66 318.93C1688.62 378.93 1581.39 408.407 1476.21 411.696C1469.69 411.899 1463.19 411.999 1456.72 411.999Z" fill="var(--fill-0, #75E2FF)"/>
</g>
</svg>
